/* XPM */
static char * stick_toggled_prelight_xpm[] = {
"26 26 3 1",
" 	c None",
".	c #EAB000",
"+	c #FFFFFF",
"                          ",
"                          ",
"                          ",
"                          ",
" ........................ ",
"..........................",
"..........................",
"..........................",
"..........................",
".........++++++++.........",
"........++++++++++........",
"........++......++........",
"........++.++++.++........",
"........++.++++.++........",
"........++.++++.++........",
"........++.++++.++........",
"........++......++........",
"........++++++++++........",
".........++++++++.........",
"..........................",
"..........................",
"..........................",
"..........................",
"..........................",
"                          ",
"                          "};
