/* XPM */
static char * bottom_left_inactive_xpm[] = {
"4 4 3 1",
" 	c None",
".	c #000075",
"-	c #000020",
"-.--",
"-.--",
"-...",
"----"};
