/* XPM */
static char * close_active_xpm[] = {
"19 30 3 1",
" 	c None",
"x	c #ccccff",
"-	c #000045",
"                   ",
"                   ",
"                   ",
"                   ",
"                   ",
"                   ",
"                   ",
"-------------------",
"-------------------",
"-------------------",
"-------------------",
"----xxx-----xxx----",
"----xxxx---xxxx----",
"----xxxxx-xxxxx----",
"-----xxxxxxxxx-----",
"------xxxxxxx------",
"-------xxxxx-------",
"------xxxxxxx------",
"-----xxxxxxxxx-----",
"----xxxxx-xxxxx----",
"----xxxx---xxxx----",
"----xxx-----xxx----",
"-------------------",
"-------------------",
"-------------------",
"-------------------",
"                   ",
"                   ",
"                   ",
"                   "};
