/* XPM */
static char * maximize_inactive_xpm[] = {
"19 30 3 1",
" 	c None",
"x	c #000075",
"-	c #000020",
"                   ",
"                   ",
"                   ",
"                   ",
"                   ",
"                   ",
"                   ",
"-------------------",
"-------------------",
"-------------------",
"-------------------",
"----xxxxxxxxxxx----",
"----xxxxxxxxxxx----",
"----xxxxxxxxxxx----",
"----xxxxxxxxxxx----",
"----xx-------xx----",
"----xx-------xx----",
"----xx-------xx----",
"----xx-------xx----",
"----xx-------xx----",
"----xxxxxxxxxxx----",
"----xxxxxxxxxxx----",
"-------------------",
"-------------------",
"-------------------",
"-------------------",
"                   ",
"                   ",
"                   ",
"                   "};
