/* XPM */
static char * menu_pressed_xpm[] = {
"19 30 3 1",
" 	c None",
"x	c #6666ff",
"-	c #000045",
"                   ",
"                   ",
"                   ",
"                   ",
"                   ",
"                   ",
"                   ",
"                   ",
"                   ",
"-------------------",
"-------------------",
"-------------------",
"---xxxxxxxxxx------",
"---x---------------",
"---x-xxxxxxxxxx----",
"---x-xxxxxxxxxx----",
"---x-xxxxxxxxxx----",
"---x-xxxxxxxxxx----",
"---x-xxxxxxxxxx----",
"---x-xxxxxxxxxx----",
"---x-xxxxxxxxxx----",
"---x-xxxxxxxxxx----",
"-----xxxxxxxxxx----",
"-----xxxxxxxxxx----",
"-------------------",
"-------------------",
"-------------------",
"-------------------",
"                   ",
"                   "};
