/* XPM */
static char * title_5_inactive_xpm[] = {
"1 32 3 1",
" 	c None",
".	c #000075",
"-	c #000020",
"-",
".",
"-",
"-",
"-",
"-",
"-",
"-",
"-",
"-",
"-",
"-",
"-",
"-",
"-",
"-",
"-",
"-",
"-",
"-",
"-",
"-",
"-",
"-",
"-",
"-",
"-",
"-",
"-",
"-",
"-",
"-"};
