/* XPM */
static char * top_right_inactive_xpm[] = {
"6 32 3 1",
" 	c None",
".	c #000075",
"-	c #000020",
"------",
".....-",
"----.-",
"----.-",
"----.-",
"----.-",
"----.-",
"----.-",
"----.-",
"----.-",
"----.-",
"----.-",
"----.-",
"----.-",
"----.-",
"----.-",
"----.-",
"----.-",
"----.-",
"----.-",
"----.-",
"----.-",
"----.-",
"----.-",
"----.-",
"----.-",
"----.-",
"----.-",
"----.-",
"----.-",
"----.-",
"----.-"};
