/* XPM */
static char * top_left_active_xpm[] = {
"6 32 3 1",
" 	c None",
".	c #0000dd",
"-	c #000045",
"------",
"-.....",
"-.----",
"-.----",
"-.----",
"-.----",
"-.----",
"-.----",
"-.----",
"-.----",
"-.----",
"-.----",
"-.----",
"-.----",
"-.----",
"-.----",
"-.----",
"-.----",
"-.----",
"-.----",
"-.----",
"-.----",
"-.----",
"-.----",
"-.----",
"-.----",
"-.----",
"-.----",
"-.----",
"-.----",
"-.----",
"-.----"};
