/* XPM */
static char * maximize_prelight_xpm[] = {
"26 26 3 1",
" 	c None",
".	c #1BB272",
"+	c #FFFFFF",
"                          ",
"                          ",
"                          ",
"                          ",
" ........................ ",
"..........................",
"..........................",
"..........................",
"..........................",
"........++++++++++........",
"........++++++++++........",
"........++......++........",
"........++......++........",
"........++......++........",
"........++......++........",
"........++......++........",
"........++......++........",
"........++++++++++........",
"........++++++++++........",
"..........................",
"..........................",
"..........................",
"..........................",
"..........................",
"                          ",
"                          "};
