/* XPM */
static char * left_active_xpm[] = {
"8 28 4 1",
" 	c None",
".	c #212121",
"+	c #B045FF",
"@	c #000000",
".....++@",
".....++@",
".....++@",
".....++@",
".....++@",
".....++@",
".....++@",
".....++@",
".....++@",
".....++@",
".....++@",
".....++@",
".....++@",
".....++@",
".....++@",
".....++@",
".....++@",
".....++@",
".....++@",
".....++@",
".....++@",
".....++@",
".....++@",
".....++@",
".....++@",
".....++@",
".....++@",
".....++@"};
