/* XPM */
static char * right_active_xpm[] = {
"8 28 4 1",
" 	c None",
".	c #000000",
"+	c #B045FF",
"@	c #212121",
".++@@@@@",
".++@@@@@",
".++@@@@@",
".++@@@@@",
".++@@@@@",
".++@@@@@",
".++@@@@@",
".++@@@@@",
".++@@@@@",
".++@@@@@",
".++@@@@@",
".++@@@@@",
".++@@@@@",
".++@@@@@",
".++@@@@@",
".++@@@@@",
".++@@@@@",
".++@@@@@",
".++@@@@@",
".++@@@@@",
".++@@@@@",
".++@@@@@",
".++@@@@@",
".++@@@@@",
".++@@@@@",
".++@@@@@",
".++@@@@@",
".++@@@@@"};
