/* XPM */
static char * title_3_active_xpm[] = {
"2 26 3 1",
" 	c None",
".	c #1eba00",
"+	c #191718",
"..",
"++",
"++",
"++",
"++",
"++",
"++",
"++",
"++",
"++",
"++",
"++",
"++",
"++",
"++",
"++",
"++",
"++",
"++",
"++",
"++",
"++",
"++",
"++",
"++",
"++"};
