/* XPM */
static char * left_active_xpm[] = {
"8 28 4 1",
" 	c None",
".	c #212121",
"+	c #23B7E8",
"@	c #000000",
".....++@",
".....++@",
".....++@",
".....++@",
".....++@",
".....++@",
".....++@",
".....++@",
".....++@",
".....++@",
".....++@",
".....++@",
".....++@",
".....++@",
".....++@",
".....++@",
".....++@",
".....++@",
".....++@",
".....++@",
".....++@",
".....++@",
".....++@",
".....++@",
".....++@",
".....++@",
".....++@",
".....++@"};
