<?xml version="1.0" encoding="UTF-8" standalone="no"?>
<svg
   xmlns:dc="http://purl.org/dc/elements/1.1/"
   xmlns:cc="http://creativecommons.org/ns#"
   xmlns:rdf="http://www.w3.org/1999/02/22-rdf-syntax-ns#"
   xmlns:svg="http://www.w3.org/2000/svg"
   xmlns="http://www.w3.org/2000/svg"
   xmlns:sodipodi="http://sodipodi.sourceforge.net/DTD/sodipodi-0.dtd"
   xmlns:inkscape="http://www.inkscape.org/namespaces/inkscape"
   width="24"
   height="24"
   viewBox="0 0 24 24"
   fill="#d1dbe5"
   fill-opacity=".87"
   version="1.1"
   id="svg4"
   sodipodi:docname="key-hide.svg"
   inkscape:version="0.92.5 (2060ec1f9f, 2020-04-08)">
  <metadata
     id="metadata10">
    <rdf:RDF>
      <cc:Work
         rdf:about="">
        <dc:format>image/svg+xml</dc:format>
        <dc:type
           rdf:resource="http://purl.org/dc/dcmitype/StillImage" />
        <dc:title></dc:title>
      </cc:Work>
    </rdf:RDF>
  </metadata>
  <defs
     id="defs8" />
  <sodipodi:namedview
     pagecolor="#000000"
     bordercolor="#666666"
     borderopacity="1"
     objecttolerance="10"
     gridtolerance="10"
     guidetolerance="10"
     inkscape:pageopacity="0"
     inkscape:pageshadow="2"
     inkscape:window-width="1852"
     inkscape:window-height="1020"
     id="namedview6"
     showgrid="false"
     inkscape:zoom="34.125"
     inkscape:cx="12"
     inkscape:cy="12"
     inkscape:window-x="68"
     inkscape:window-y="32"
     inkscape:window-maximized="1"
     inkscape:current-layer="svg4" />
  <path
     d="M20 3H4c-1.1 0-1.99.9-1.99 2L2 15c0 1.1.9 2 2 2h16c1.1 0 2-.9 2-2V5c0-1.1-.9-2-2-2zm-9 3h2v2h-2V6zm0 3h2v2h-2V9zM8 6h2v2H8V6zm0 3h2v2H8V9zm-1 2H5V9h2v2zm0-3H5V6h2v2zm9 7H8v-2h8v2zm0-4h-2V9h2v2zm0-3h-2V6h2v2zm3 3h-2V9h2v2zm0-3h-2V6h2v2zm-7 15l4-4H8l4 4z"
     id="path2"
     style="fill:#d1dbe5;fill-opacity:1" />
</svg>
