/* XPM */
static char * title_1_active_xpm[] = {
"8 28 4 1",
" 	c None",
".	c #212121",
"+	c #89AD1A",
"@	c #000000",
"........",
"........",
"........",
"........",
"........",
"........",
"........",
"........",
"........",
"........",
"........",
"........",
"........",
"........",
"........",
"........",
"........",
"........",
"........",
"........",
"........",
"........",
"........",
"........",
"........",
"++++++++",
"++++++++",
"@@@@@@@@"};
