/* XPM */
static char * top_left_active_xpm[] = {
"8 56 4 1",
" 	c None",
".	c #212121",
"+	c #89AD1A",
"@	c #000000",
"........",
"........",
"........",
"........",
"........",
"........",
"........",
"........",
"........",
"........",
"........",
"........",
"........",
"........",
"........",
"........",
"........",
"........",
"........",
"........",
"........",
"........",
"........",
"........",
"........",
"......++",
".....+++",
".....++@",
".....++@",
".....++@",
".....++@",
".....++@",
".....++@",
".....++@",
".....++@",
".....++@",
".....++@",
".....++@",
".....++@",
".....++@",
".....++@",
".....++@",
".....++@",
".....++@",
".....++@",
".....++@",
".....++@",
".....++@",
".....++@",
".....++@",
".....++@",
".....++@",
".....++@",
".....++@",
".....++@",
".....++@"};
