/* XPM */
static char * bottom_right_active_xpm[] = {
"28 28 4 1",
" 	c None",
".	c #000000",
"+	c #FF3387",
"@	c #212121",
"                    .++@@@@@",
"                    .++@@@@@",
"                    .++@@@@@",
"                    .++@@@@@",
"                    .++@@@@@",
"                    .++@@@@@",
"                    .++@@@@@",
"                    .++@@@@@",
"                    .++@@@@@",
"                    .++@@@@@",
"                    .++@@@@@",
"                    .++@@@@@",
"                    .++@@@@@",
"                    .++@@@@@",
"                    .++@@@@@",
"                    .++@@@@@",
"                    .++@@@@@",
"                    .++@@@@@",
"                    .++@@@@@",
"                    .++@@@@@",
".....................++@@@@@",
"+++++++++++++++++++++++@@@@@",
"++++++++++++++++++++++@@@@@@",
"@@@@@@@@@@@@@@@@@@@@@@@@@@@@",
"@@@@@@@@@@@@@@@@@@@@@@@@@@@@",
"@@@@@@@@@@@@@@@@@@@@@@@@@@@@",
"@@@@@@@@@@@@@@@@@@@@@@@@@@@@",
"@@@@@@@@@@@@@@@@@@@@@@@@@@@@"};
