<?xml version="1.0" encoding="UTF-8" standalone="no"?>
<!-- Created with Inkscape (http://www.inkscape.org/) -->

<svg
   xmlns:dc="http://purl.org/dc/elements/1.1/"
   xmlns:cc="http://creativecommons.org/ns#"
   xmlns:rdf="http://www.w3.org/1999/02/22-rdf-syntax-ns#"
   xmlns:svg="http://www.w3.org/2000/svg"
   xmlns="http://www.w3.org/2000/svg"
   xmlns:sodipodi="http://sodipodi.sourceforge.net/DTD/sodipodi-0.dtd"
   xmlns:inkscape="http://www.inkscape.org/namespaces/inkscape"
   width="40"
   height="22"
   viewBox="0 0 40 22"
   version="1.1"
   id="svg8"
   inkscape:version="0.92.4 (5da689c313, 2019-01-14)"
   sodipodi:docname="close-inactive.svg">
  <defs
     id="defs2" />
  <sodipodi:namedview
     id="base"
     pagecolor="#ffffff"
     bordercolor="#666666"
     borderopacity="1.0"
     inkscape:pageopacity="0.0"
     inkscape:pageshadow="2"
     inkscape:zoom="15.839192"
     inkscape:cx="9.2769871"
     inkscape:cy="8.1418579"
     inkscape:document-units="px"
     inkscape:current-layer="layer1"
     showgrid="false"
     units="px"
     inkscape:pagecheckerboard="true"
     inkscape:window-width="1540"
     inkscape:window-height="985"
     inkscape:window-x="374"
     inkscape:window-y="58"
     inkscape:window-maximized="0" />
  <metadata
     id="metadata5">
    <rdf:RDF>
      <cc:Work
         rdf:about="">
        <dc:format>image/svg+xml</dc:format>
        <dc:type
           rdf:resource="http://purl.org/dc/dcmitype/StillImage" />
        <dc:title />
      </cc:Work>
    </rdf:RDF>
  </metadata>
  <g
     inkscape:label="Capa 1"
     inkscape:groupmode="layer"
     id="layer1"
     transform="translate(0,-304.41665)">
    <g
       id="g854">
      <rect
         transform="scale(-1)"
         y="-326.41666"
         x="-40"
         height="22"
         width="40"
         id="rect819"
         style="opacity:0.2;fill:#404647;fill-opacity:1;stroke:none;stroke-width:1.48323965;stroke-miterlimit:4;stroke-dasharray:none;stroke-opacity:1" />
      <rect
         transform="scale(-1)"
         y="-326.41666"
         x="-40"
         height="20"
         width="38"
         id="rect819-3"
         style="opacity:1;fill:#000000;fill-opacity:1;stroke:none;stroke-width:1.37840486;stroke-miterlimit:4;stroke-dasharray:none;stroke-opacity:1" />
      <rect
         transform="scale(-1)"
         y="-325.41666"
         x="-39"
         height="20"
         width="38"
         id="rect817"
         style="opacity:1;fill:#606464;fill-opacity:1;stroke:none;stroke-width:1.49185526;stroke-miterlimit:4;stroke-dasharray:none;stroke-opacity:1" />
      <g
         style="fill:#828282;fill-opacity:1"
         transform="rotate(-180,20,315.41665)"
         id="g838">
        <rect
           style="opacity:1;fill:#828282;fill-opacity:1;stroke:#7a7a7a;stroke-width:0;stroke-miterlimit:4;stroke-dasharray:none;stroke-opacity:1"
           id="rect816"
           width="38"
           height="1"
           x="1.0000018"
           y="324.41663" />
        <rect
           style="opacity:1;fill:#828282;fill-opacity:1;stroke:#7a7a7a;stroke-width:0;stroke-miterlimit:4;stroke-dasharray:none;stroke-opacity:1"
           id="rect816-3"
           width="20"
           height="1"
           x="305.41663"
           y="-39"
           transform="rotate(90)" />
      </g>
      <g
         style="fill:#464646;fill-opacity:1"
         transform="rotate(-180,20,315.41665)"
         id="g844">
        <rect
           style="opacity:1;fill:#464646;fill-opacity:1;stroke:#7a7a7a;stroke-width:0;stroke-miterlimit:4;stroke-dasharray:none;stroke-opacity:1"
           id="rect816-7"
           width="20"
           height="1"
           x="-325.41663"
           y="-2.0000036"
           transform="matrix(0,-1,-1,0,0,0)" />
        <rect
           style="opacity:1;fill:#464646;fill-opacity:1;stroke:#7a7a7a;stroke-width:0;stroke-miterlimit:4;stroke-dasharray:none;stroke-opacity:1"
           id="rect816-3-5"
           width="38"
           height="1"
           x="-39.000004"
           y="305.41666"
           transform="scale(-1,1)" />
      </g>
      <path
         d="m 25.594379,311.78023 -3.635929,3.63633 3.635929,3.63616 c 0.540827,0.54104 0.540827,1.41744 0,1.95848 -0.270224,0.27023 -0.624505,0.40544 -0.978614,0.40544 -0.354694,0 -0.70901,-0.13501 -0.979027,-0.40544 l -3.636721,-3.63657 -3.636446,3.63654 c -0.270189,0.27022 -0.624505,0.40544 -0.978924,0.40544 -0.354315,0 -0.70839,-0.13501 -0.97882,-0.40544 -0.540827,-0.5408 -0.540827,-1.41724 0,-1.95849 l 3.635825,-3.63616 -3.636032,-3.63629 c -0.540826,-0.54083 -0.540826,-1.41745 0,-1.95828 0.540723,-0.54041 1.416815,-0.54041 1.957745,0 l 3.636617,3.63633 3.636343,-3.63633 c 0.541033,-0.54041 1.417228,-0.54041 1.957847,0 0.541034,0.54083 0.541034,1.41745 2.07e-4,1.95828 z"
         id="path2"
         inkscape:connector-curvature="0"
         style="fill:#a1a1a1;fill-opacity:1;stroke-width:0.03444986" />
    </g>
  </g>
</svg>
