<?xml version="1.0" encoding="UTF-8" standalone="no"?>
<!-- Generator: Adobe Illustrator 19.0.0, SVG Export Plug-In . SVG Version: 6.00 Build 0)  -->

<svg
   xmlns:dc="http://purl.org/dc/elements/1.1/"
   xmlns:cc="http://creativecommons.org/ns#"
   xmlns:rdf="http://www.w3.org/1999/02/22-rdf-syntax-ns#"
   xmlns:svg="http://www.w3.org/2000/svg"
   xmlns="http://www.w3.org/2000/svg"
   xmlns:sodipodi="http://sodipodi.sourceforge.net/DTD/sodipodi-0.dtd"
   xmlns:inkscape="http://www.inkscape.org/namespaces/inkscape"
   version="1.1"
   id="Capa_1"
   x="0px"
   y="0px"
   viewBox="0 0 24 24"
   xml:space="preserve"
   sodipodi:docname="combo-arrow-down-prelight.svg"
   width="24"
   height="24"
   inkscape:version="0.92.4 (5da689c313, 2019-01-14)"><metadata
     id="metadata39"><rdf:RDF><cc:Work
         rdf:about=""><dc:format>image/svg+xml</dc:format><dc:type
           rdf:resource="http://purl.org/dc/dcmitype/StillImage" /><dc:title /></cc:Work></rdf:RDF></metadata><defs
     id="defs37" /><sodipodi:namedview
     pagecolor="#ffffff"
     bordercolor="#666666"
     borderopacity="1"
     objecttolerance="10"
     gridtolerance="10"
     guidetolerance="10"
     inkscape:pageopacity="0"
     inkscape:pageshadow="2"
     inkscape:window-width="1391"
     inkscape:window-height="891"
     id="namedview35"
     showgrid="false"
     inkscape:pagecheckerboard="true"
     inkscape:zoom="15.893445"
     inkscape:cx="1.2826269"
     inkscape:cy="11.176322"
     inkscape:window-x="519"
     inkscape:window-y="150"
     inkscape:window-maximized="0"
     inkscape:current-layer="Capa_1" /><path
     d="M 12.676471,15.902455 16.96229,9.354062 C 17.00751,9.284732 17.01222,9.194868 16.97558,9.120804 16.9385,9.046514 16.865644,8.999997 16.785928,8.999997 H 8.214292 c -0.07972,0 -0.15279,0.04651 -0.189862,0.120807 C 8.00814,9.153776 8,9.189898 8,9.225799 c 0,0.04493 0.01286,0.08964 0.03793,0.128257 l 4.285818,6.548394 C 12.363818,15.96364 12.429608,16 12.50011,16 c 0.0705,0 0.136289,-0.03658 0.176361,-0.09755 z"
     id="path2"
     inkscape:connector-curvature="0"
     style="fill:#00ff00;fill-opacity:1;stroke-width:0.21997344" /><g
     id="g4"
     transform="translate(0,-17.999001)" /><g
     id="g6"
     transform="translate(0,-17.999001)" /><g
     id="g8"
     transform="translate(0,-17.999001)" /><g
     id="g10"
     transform="translate(0,-17.999001)" /><g
     id="g12"
     transform="translate(0,-17.999001)" /><g
     id="g14"
     transform="translate(0,-17.999001)" /><g
     id="g16"
     transform="translate(0,-17.999001)" /><g
     id="g18"
     transform="translate(0,-17.999001)" /><g
     id="g20"
     transform="translate(0,-17.999001)" /><g
     id="g22"
     transform="translate(0,-17.999001)" /><g
     id="g24"
     transform="translate(0,-17.999001)" /><g
     id="g26"
     transform="translate(0,-17.999001)" /><g
     id="g28"
     transform="translate(0,-17.999001)" /><g
     id="g30"
     transform="translate(0,-17.999001)" /><g
     id="g32"
     transform="translate(0,-17.999001)" /></svg>