<?xml version="1.0" encoding="UTF-8" standalone="no"?>
<!-- Generator: Adobe Illustrator 19.0.0, SVG Export Plug-In . SVG Version: 6.00 Build 0)  -->

<svg
   xmlns:dc="http://purl.org/dc/elements/1.1/"
   xmlns:cc="http://creativecommons.org/ns#"
   xmlns:rdf="http://www.w3.org/1999/02/22-rdf-syntax-ns#"
   xmlns:svg="http://www.w3.org/2000/svg"
   xmlns="http://www.w3.org/2000/svg"
   xmlns:sodipodi="http://sodipodi.sourceforge.net/DTD/sodipodi-0.dtd"
   xmlns:inkscape="http://www.inkscape.org/namespaces/inkscape"
   version="1.1"
   id="Capa_1"
   x="0px"
   y="0px"
   viewBox="0 0 50 24"
   xml:space="preserve"
   sodipodi:docname="spin-v-down.svg"
   width="50"
   height="24"
   inkscape:version="0.92.4 (5da689c313, 2019-01-14)"><metadata
     id="metadata39"><rdf:RDF><cc:Work
         rdf:about=""><dc:format>image/svg+xml</dc:format><dc:type
           rdf:resource="http://purl.org/dc/dcmitype/StillImage" /><dc:title></dc:title></cc:Work></rdf:RDF></metadata><defs
     id="defs37" /><sodipodi:namedview
     pagecolor="#ffffff"
     bordercolor="#666666"
     borderopacity="1"
     objecttolerance="10"
     gridtolerance="10"
     guidetolerance="10"
     inkscape:pageopacity="0"
     inkscape:pageshadow="2"
     inkscape:window-width="1920"
     inkscape:window-height="1046"
     id="namedview35"
     showgrid="false"
     inkscape:pagecheckerboard="true"
     inkscape:zoom="11.238363"
     inkscape:cx="10.12926"
     inkscape:cy="12.924481"
     inkscape:window-x="0"
     inkscape:window-y="0"
     inkscape:window-maximized="1"
     inkscape:current-layer="Capa_1" /><path
     d="M 24.823532,15.874585 20.537713,7.455226 C 20.492493,7.366086 20.487783,7.250548 20.524423,7.155323 20.561503,7.059808 20.634359,7 20.714075,7 h 8.571636 c 0.07972,0 0.15279,0.0598 0.189862,0.155323 0.01629,0.04239 0.02443,0.08883 0.02443,0.134994 0,0.05777 -0.01286,0.115251 -0.03793,0.164902 l -4.285818,8.41936 C 25.136185,15.953251 25.070395,16 24.999893,16 c -0.0705,0 -0.136289,-0.04703 -0.176361,-0.125421 z"
     id="path2"
     inkscape:connector-curvature="0"
     style="fill:#ffffff;fill-opacity:1;stroke-width:0.24942639" /><g
     id="g4"
     transform="translate(13,-17.999001)" /><g
     id="g6"
     transform="translate(13,-17.999001)" /><g
     id="g8"
     transform="translate(13,-17.999001)" /><g
     id="g10"
     transform="translate(13,-17.999001)" /><g
     id="g12"
     transform="translate(13,-17.999001)" /><g
     id="g14"
     transform="translate(13,-17.999001)" /><g
     id="g16"
     transform="translate(13,-17.999001)" /><g
     id="g18"
     transform="translate(13,-17.999001)" /><g
     id="g20"
     transform="translate(13,-17.999001)" /><g
     id="g22"
     transform="translate(13,-17.999001)" /><g
     id="g24"
     transform="translate(13,-17.999001)" /><g
     id="g26"
     transform="translate(13,-17.999001)" /><g
     id="g28"
     transform="translate(13,-17.999001)" /><g
     id="g30"
     transform="translate(13,-17.999001)" /><g
     id="g32"
     transform="translate(13,-17.999001)" /></svg>